<svg xmlns="http://www.w3.org/2000/svg" viewBox="0 0 152 140" fill="none"><g transform="translate(-11 -9) scale(1.2)" id="mascote"><g id="corpo"><path d="M95 91C115 82 149 92 160 111C169 125 174 151 160 166C140 180 96 179 76 164C66 146 68 118 82 100Z" fill="#245968" /><path d="M88 101C95 91 123 93 132 106L139 163C123 173 104 172 88 164Z" fill="#eaf2e6" /><path d="M114 110C129 111 140 133 139 163L113 170Z" fill="#c1e5df" /><path d="M90 95L80 108l13 18-5 7 13 35 5-52ZM124 96l20 14-9 15 6 6-17 37-5-53Z" fill="#387b86" /><path d="M100 95l13 10-9 13-12-19ZM113 105l13-10 6 5-10 18Z" fill="#eaf2e6" /><path d="M108 105h11l2 9-8 5-8-5ZM111 118h6l7 28-10 11-9-10Z" fill="#3b82f6" /><path d="M111 119h3v33l-6-6Z" fill="#7dd3fc" /><path d="M142 125h13v4h-13Z" fill="#173e4b" /><path d="M143 124l3-7 4 5 3-4 2 7Z" fill="#eaf2e6" /><ellipse cx="125" cy="159" rx="2.2" ry="2.2" fill="#fbbf24" /></g><g id="cabeca"><path d="M75 77C84 79 101 77 108 72L123 96 113 105 91 97Z" fill="#16a34a" /><path d="M82 81l22 1 7 15-19-1Z" fill="#4ade80" /><path d="M65 28l7-14 12 11 9-11 10 18 11-2 1 20Z" fill="#18634f" /><path d="M48 46C49 28 60 22 79 24C107 21 121 43 111 64L107 79C98 100 76 102 59 92L40 83Z" fill="#4ade80" /><path d="M95 30C109 33 119 48 109 67L105 80C102 87 98 91 93 93L97 64Z" fill="#16a34a" /><ellipse cx="81" cy="49" rx="9.5" ry="10" fill="#eaf2e6" /><ellipse cx="57" cy="50" rx="7" ry="9" fill="#eaf2e6" /><ellipse cx="77" cy="51" rx="4.5" ry="5.5" fill="#173e4b" /><ellipse cx="54" cy="52" rx="3.5" ry="5" fill="#173e4b" /><path d="M69 37l20-3 2 5-21 3ZM49 40l13-2 1 4-13 3Z" fill="#18634f" /><path d="M34 56C40 52 49 55 57 58L80 61C94 66 92 79 80 85C63 94 29 91 25 78C21 68 25 58 34 56Z" fill="#4ade80" /><path d="M29 73C41 79 73 83 86 74C87 82 72 93 48 88C36 87 28 82 29 73Z" fill="#a5edaa" /><ellipse cx="34" cy="65" rx="3" ry="2" fill="#18634f" /><ellipse cx="49" cy="67" rx="2.5" ry="2" fill="#18634f" /><path d="M34 75C48 81 71 82 85 73C80 92 47 97 34 75Z" fill="#18634f" /><path d="M37 77C50 82 71 82 82 77L78 83C62 89 44 85 37 77Z" fill="#eaf2e6" /><ellipse cx="96" cy="65" rx="5" ry="3" fill="#a5edaa" /></g></g></svg>
